<?xml version="1.0" encoding="UTF-8"?>
<svg version="1.1" xmlns="http://www.w3.org/2000/svg" width="2000" height="2000">
<path d="M0 0 C0.33 0 0.66 0 1 0 C1.04345047 0.84491501 1.08690094 1.68983002 1.13166809 2.56034851 C3.68793544 56.84184963 3.68793544 56.84184963 8 111 C8.06834045 111.69395874 8.13668091 112.38791748 8.20709229 113.10290527 C12.62159901 157.8390996 17.94921703 210.54489368 54.74609375 241.29296875 C97.82319423 273.91808645 162.42202368 273.43843976 213.95629883 277.10009766 C214.72169983 277.15487274 215.48710083 277.20964783 216.2756958 277.26608276 C218.31257491 277.41052321 220.34975794 277.55066012 222.38696289 277.69042969 C225.96078107 277.99663966 229.45604136 278.45736793 233 279 C233 279.33 233 279.66 233 280 C230.12531697 280.27454838 227.25034868 280.54504953 224.375 280.8125 C223.40626953 280.90305664 222.43753906 280.99361328 221.43945312 281.08691406 C215.1951938 281.65717476 208.95018478 282.15589855 202.6953125 282.58984375 C115.63158934 286.9126916 115.63158934 286.9126916 42.875 329.3046875 C5.57124919 373.74860937 7.19203158 447.36556396 3.8125 502.4375 C3.76979351 503.13179485 3.72708702 503.82608971 3.6830864 504.5414238 C2.57000586 522.68642553 1.63834436 540.83167809 1 559 C0.34 558.67 -0.32 558.34 -1 558 C-1.0806369 556.56469185 -1.0806369 556.56469185 -1.16290283 555.10038757 C-0.46823571 429.32588252 -0.46823571 429.32588252 -51.1875 320.8125 C-57.23278505 315.50608312 -63.83883673 311.57307124 -71 308 C-71.6094043 307.69465332 -72.21880859 307.38930664 -72.84667969 307.07470703 C-96.63702925 295.40385194 -123.46461037 291.12386068 -149.5 287.625 C-150.80565918 287.44501465 -152.11131836 287.2650293 -153.45654297 287.07958984 C-172.62287541 284.64430893 -188.64255851 290.16246544 -204.1953125 301.28515625 C-215.86777977 310.46490992 -223.56545145 321.20599638 -229 335 C-229.47373047 336.16789063 -229.47373047 336.16789063 -229.95703125 337.359375 C-233.76528079 347.63977278 -234.29828577 358.67153178 -234.25333309 369.52492619 C-234.25643036 370.72113251 -234.25952764 371.91733883 -234.26271877 373.14979383 C-234.26926786 376.44434372 -234.26698997 379.73874564 -234.26086751 383.03329174 C-234.2564275 386.62772453 -234.26368004 390.22213761 -234.26942402 393.81656593 C-234.27790358 400.10845827 -234.27908116 406.40031847 -234.27541161 412.69221497 C-234.27000746 422.04986571 -234.27612947 431.40748433 -234.28470039 440.76513147 C-234.29886411 456.51757631 -234.30421432 472.27001219 -234.30496025 488.02246284 C-234.30614082 509.56215942 -234.32136281 531.10183054 -234.34045542 552.64151787 C-234.34935418 562.68909908 -234.35762419 572.73668082 -234.36577702 582.78426266 C-234.36700364 584.29306337 -234.36700364 584.29306337 -234.36825505 585.83234491 C-234.38758848 609.76786623 -234.40112999 633.70339012 -234.41333008 657.63891602 C-234.41413527 659.20937716 -234.41413527 659.20937716 -234.41495672 660.81156478 C-234.42743811 685.21139167 -234.43821946 709.61121887 -234.44702148 734.01104736 C-234.45009123 742.46154786 -234.45318364 750.91204835 -234.45629883 759.36254883 C-234.45668064 760.40545218 -234.45706246 761.44835554 -234.45745584 762.52286202 C-234.46623259 786.37174372 -234.4774249 810.22061999 -234.49742985 834.0694952 C-234.49827251 835.07436957 -234.49911518 836.07924394 -234.49998338 837.11456905 C-234.5084709 847.15269437 -234.51746701 857.19081913 -234.52717515 867.22894335 C-234.53193582 872.16933652 -234.53655145 877.10972981 -234.54106331 882.05012321 C-234.54239513 883.50838197 -234.54239513 883.50838197 -234.54375386 884.99610051 C-234.55762506 900.57321344 -234.56033184 916.15030891 -234.55838365 931.72742709 C-234.55657877 947.41946502 -234.56534445 963.11146822 -234.58469205 978.80349458 C-234.59483844 987.28785618 -234.60025257 995.77215396 -234.59192467 1004.25651932 C-234.5541631 1045.91579535 -234.56661347 1087.00336564 -243 1128 C-243.21495117 1129.05123047 -243.42990234 1130.10246094 -243.65136719 1131.18554688 C-249.19622717 1157.59201012 -257.98806257 1182.85346803 -270 1207 C-270.44988281 1207.91604004 -270.89976562 1208.83208008 -271.36328125 1209.77587891 C-281.15926041 1229.60426757 -292.97790839 1247.35136559 -307.91015625 1263.6875 C-309.68356841 1265.64985514 -311.38150245 1267.64661409 -313.0625 1269.6875 C-344.17194292 1306.03820775 -398.64860983 1327.0195267 -444 1336 C-445.36796724 1336.27801332 -446.73579729 1336.55670221 -448.10351562 1336.8359375 C-468.32771343 1340.95074041 -488.3986227 1344.39153555 -509 1346 C-509.85577637 1346.06912598 -510.71155273 1346.13825195 -511.59326172 1346.20947266 C-594.73370865 1352.61268936 -680.21738643 1332.94200932 -744.375 1277.96484375 C-755.40767105 1268.25681906 -766.32628842 1257.90113915 -775 1246 C-775.66612305 1245.09991211 -775.66612305 1245.09991211 -776.34570312 1244.18164062 C-783.71232389 1234.19448284 -790.2941372 1224.02019359 -796 1213 C-796.63953613 1211.78376953 -796.63953613 1211.78376953 -797.29199219 1210.54296875 C-809.01892817 1188.01779581 -816.92744448 1163.8598027 -822 1139 C-822.15017578 1138.30293945 -822.30035156 1137.60587891 -822.45507812 1136.88769531 C-836.18984535 1072.67919833 -820.10367863 1000.65061425 -785.0234375 945.6640625 C-772.49811009 926.48007504 -758.44366006 908.89269483 -743 892 C-739.48197311 893.25166414 -736.95810067 894.62602685 -734.1875 897.125 C-733.28064453 897.93324219 -733.28064453 897.93324219 -732.35546875 898.7578125 C-731.90816406 899.16773438 -731.46085938 899.57765625 -731 900 C-732.46431997 904.25983992 -734.62000321 907.40412867 -737.3125 911 C-781.18702438 971.15108084 -802.72509379 1047.69683054 -791.5390625 1121.77099609 C-784.32524685 1164.98201319 -764.74128941 1200.39419551 -735 1232 C-734.07574219 1232.98806641 -734.07574219 1232.98806641 -733.1328125 1233.99609375 C-728.16207715 1239.14520477 -722.60180412 1243.56069738 -717 1248 C-715.46279297 1249.22783203 -715.46279297 1249.22783203 -713.89453125 1250.48046875 C-672.47042227 1283.20913795 -622.09121736 1300.50499985 -569.36914062 1300.26074219 C-566.63388784 1300.25003479 -563.89929546 1300.26070638 -561.1640625 1300.2734375 C-545.19246942 1300.28667931 -529.35998889 1299.06556089 -513.625 1296.25 C-512.68003662 1296.08226074 -511.73507324 1295.91452148 -510.76147461 1295.74169922 C-494.69394852 1292.76075556 -479.11349014 1288.19366751 -464 1282 C-463.06293213 1281.6280249 -463.06293213 1281.6280249 -462.10693359 1281.24853516 C-438.53374646 1271.85425505 -416.92046161 1257.81954923 -398 1241 C-397.00871094 1240.13117188 -396.01742188 1239.26234375 -394.99609375 1238.3671875 C-389.57762792 1233.54585872 -384.55038134 1228.64840814 -380 1223 C-379.24203125 1222.06800781 -378.4840625 1221.13601563 -377.703125 1220.17578125 C-349.90039692 1185.36902012 -336.17689503 1143.56563075 -331.1875 1099.6875 C-331.0635083 1098.59751709 -330.9395166 1097.50753418 -330.81176758 1096.38452148 C-324.85895084 1039.15062318 -350.12193414 979.6204896 -385.5 935.75 C-391.38448821 928.56680568 -397.56731445 921.69426545 -404 915 C-404.69971924 914.26740967 -404.69971924 914.26740967 -405.41357422 913.52001953 C-410.98757759 907.71189631 -416.76384136 902.389312 -423.05859375 897.375 C-426.39857317 894.67817731 -429.63415469 891.87671928 -432.875 889.0625 C-438.86289144 883.88947078 -445.04277304 879.03759617 -451.34814453 874.26074219 C-454.23457274 872.05773964 -457.08546929 869.80974653 -459.9375 867.5625 C-460.51959229 867.10407715 -461.10168457 866.6456543 -461.70141602 866.17333984 C-462.88048625 865.24461233 -464.05944118 864.31573841 -465.23828125 863.38671875 C-466.97989788 862.01582318 -468.72387885 860.64800009 -470.46875 859.28125 C-477.14084461 854.05319334 -483.77896543 848.78535598 -490.39208984 843.48291016 C-496.3189464 838.73497767 -502.28793592 834.04193285 -508.26611328 829.35888672 C-511.17966827 827.07546697 -514.08964193 824.78749197 -517 822.5 C-518.16664973 821.58331177 -519.33331639 820.6666451 -520.5 819.75 C-531 811.5 -531 811.5 -541.5 803.25 C-542.07741943 802.79633057 -542.65483887 802.34266113 -543.24975586 801.87524414 C-544.4173041 800.95784991 -545.58478449 800.04036933 -546.75219727 799.12280273 C-549.6548279 796.84155755 -552.55859274 794.56178786 -555.46484375 792.28515625 C-562.13768061 787.05509493 -568.77754236 781.786497 -575.39208984 776.48291016 C-581.3189464 771.73497767 -587.28793592 767.04193285 -593.26611328 762.35888672 C-596.17966827 760.07546697 -599.08964193 757.78749197 -602 755.5 C-603.16664973 754.58331177 -604.33331639 753.6666451 -605.5 752.75 C-612.5 747.25 -619.5 741.75 -626.5 736.25 C-627.07733887 735.79641113 -627.65467773 735.34282227 -628.24951172 734.87548828 C-629.41794152 733.95736646 -630.58623548 733.03907174 -631.75439453 732.12060547 C-634.64300506 729.84977631 -637.53379548 727.58185054 -640.4296875 725.3203125 C-653.67038567 714.97143395 -666.82375767 704.60139827 -679 693 C-680.27423828 691.80503906 -680.27423828 691.80503906 -681.57421875 690.5859375 C-714.60092853 658.75171489 -732.02933385 613.45583708 -733.1875 568.01953125 C-734.12648707 505.48688475 -713.81484262 448.84188676 -670.45019531 403.48193359 C-631.55454208 363.7350287 -577.14964064 346.52612812 -522.50253296 345.71827698 C-493.30251147 345.43731301 -463.30636252 346.98718696 -434.74609375 353.3359375 C-415.70374676 357.47777819 -396.93754453 357.6635095 -377.51147461 357.8112793 C-376.36546783 357.82017685 -375.21946106 357.8290744 -374.03872681 357.83824158 C-371.85213149 357.85211146 -369.66548999 357.86016762 -367.47885132 357.86183167 C-366.50719025 357.86585495 -365.53552917 357.86987823 -364.53442383 357.87402344 C-363.67955887 357.87448669 -362.82469391 357.87494995 -361.94392395 357.87542725 C-360 358 -360 358 -359 359 C-358.87998147 360.49838399 -358.8282348 362.0022949 -358.80381775 363.50527954 C-358.77651329 364.96731056 -358.77651329 364.96731056 -358.74865723 366.45887756 C-358.73355103 367.53801926 -358.71844482 368.61716095 -358.70288086 369.72900391 C-358.68322769 370.8595369 -358.66357452 371.99006989 -358.64332581 373.15486145 C-358.57900764 376.92869858 -358.52182916 380.70260804 -358.46484375 384.4765625 C-358.42178845 387.1137245 -358.37837174 389.75088063 -358.33460999 392.38803101 C-358.24306996 397.94841619 -358.15536004 403.50885159 -358.07006836 409.06933594 C-357.97273269 415.41322362 -357.87040475 421.75701363 -357.76496977 428.10077155 C-357.66262871 434.26171559 -357.5632842 440.42270438 -357.46542549 446.58372116 C-357.42416921 449.17056619 -357.38232697 451.75740195 -357.33982658 454.34422684 C-357.03249603 473.23161246 -356.95349659 492.1107867 -357 511 C-361.29 511 -365.58 511 -370 511 C-371.36415891 508.27168218 -371.34949741 505.57856893 -371.59472656 502.5769043 C-374.18114436 471.22963652 -386.03048525 442.1859582 -410 421 C-445.10381047 391.52781688 -489.58052808 381.93945057 -534.62524414 385.46508789 C-561.1081806 388.01243824 -587.20968604 398.29705204 -607.74609375 415.26953125 C-610 417 -610 417 -612 417 C-612 417.66 -612 418.32 -612 419 C-613.46875 420.4453125 -613.46875 420.4453125 -615.5 422.125 C-642.62101997 445.39872992 -657.28481809 478.80248662 -661 514 C-661.28521611 519.44133079 -661.34246257 524.86478874 -661.3125 530.3125 C-661.30876877 531.40141541 -661.30876877 531.40141541 -661.30496216 532.5123291 C-661.24806799 543.25808495 -660.96566798 553.59917276 -658 564 C-657.77425293 564.80759766 -657.54850586 565.61519531 -657.31591797 566.44726562 C-650.8268871 588.98943089 -640.14102144 606.97855921 -624 624 C-622.75283203 625.32644531 -622.75283203 625.32644531 -621.48046875 626.6796875 C-615.04960667 633.32710862 -608.18195046 638.97737305 -600.84570312 644.57763672 C-597.69415659 647.00632853 -594.59981423 649.50585969 -591.5 652 C-584.94537196 657.25757824 -578.34859848 662.45943358 -571.73388672 667.64111328 C-568.23553554 670.3828512 -564.7420205 673.13074956 -561.24755859 675.87744141 C-558.34497577 678.15856239 -555.44131727 680.43828263 -552.53515625 682.71484375 C-545.86231939 687.94490507 -539.22245764 693.213503 -532.60791016 698.51708984 C-526.6810536 703.26502233 -520.71206408 707.95806715 -514.73388672 712.64111328 C-511.23553554 715.3828512 -507.7420205 718.13074956 -504.24755859 720.87744141 C-501.34497577 723.15856239 -498.44131727 725.43828263 -495.53515625 727.71484375 C-488.86231939 732.94490507 -482.22245764 738.213503 -475.60791016 743.51708984 C-469.6810536 748.26502233 -463.71206408 752.95806715 -457.73388672 757.64111328 C-454.23553554 760.3828512 -450.7420205 763.13074956 -447.24755859 765.87744141 C-444.34497577 768.15856239 -441.44131727 770.43828263 -438.53515625 772.71484375 C-431.86231939 777.94490507 -425.22245764 783.213503 -418.60791016 788.51708984 C-414.40115324 791.88707149 -410.17771474 795.2347215 -405.9375 798.5625 C-405.36241699 799.01383301 -404.78733398 799.46516602 -404.19482422 799.93017578 C-401.32366687 802.18176335 -398.4498378 804.42989571 -395.57421875 806.67578125 C-345.93223039 845.49050466 -345.93223039 845.49050466 -326.84228516 867.85839844 C-324.84840954 870.17621939 -322.82263447 872.46304233 -320.7890625 874.74609375 C-320.0770166 875.54587646 -319.3649707 876.34565918 -318.63134766 877.16967773 C-318.09300293 877.77368408 -317.5546582 878.37769043 -317 879 C-316.96575573 829.60829476 -316.93391548 780.2165887 -316.91531372 730.82487488 C-316.91503761 730.0936061 -316.91476149 729.36233732 -316.91447701 728.60890888 C-316.90849089 712.71562898 -316.90295057 696.82234895 -316.89786934 680.92906873 C-316.89537472 673.13475999 -316.8927816 665.34045127 -316.89013672 657.54614258 C-316.88974444 656.38271508 -316.88974444 656.38271508 -316.88934424 655.19578399 C-316.88082489 630.06570541 -316.86580476 604.93563583 -316.84740556 579.8055627 C-316.82852891 553.97641662 -316.81622645 528.14727553 -316.81217002 502.31812267 C-316.81159373 498.66809767 -316.81094246 495.01807269 -316.81024551 491.36804771 C-316.81011067 490.64968596 -316.80997582 489.93132421 -316.80983689 489.19119392 C-316.80747548 477.63778795 -316.79820481 466.08439741 -316.78633593 454.53099772 C-316.77454531 442.90973635 -316.77022974 431.28849401 -316.77299725 419.66722647 C-316.77427849 413.37309504 -316.77231119 407.07900881 -316.76158905 400.78488541 C-316.75183839 395.01888016 -316.75137694 389.25295042 -316.75820221 383.48694166 C-316.75904547 381.40462303 -316.75652388 379.32229963 -316.75023364 377.23999033 C-316.67366506 350.32038599 -321.36829326 326.6818555 -340.92578125 306.91015625 C-360.99712204 287.48079626 -384.45688923 285.4166267 -411 284 C-411 279.71 -411 275.42 -411 271 C-409.63522428 270.99945523 -408.27044855 270.99891047 -406.86431599 270.99834919 C-374.34003274 270.98425203 -341.81588856 270.94426663 -309.29168158 270.87314438 C-305.2733122 270.86437945 -301.25494239 270.85582932 -297.23657227 270.84741211 C-296.43671328 270.84573305 -295.63685429 270.84405398 -294.81275716 270.84232404 C-281.9251551 270.81578054 -269.03759753 270.80656809 -256.14997093 270.80395857 C-242.88907395 270.80088021 -229.62830389 270.77871827 -216.36746424 270.73947543 C-208.20950382 270.71591595 -200.05179806 270.7065834 -191.89380851 270.71648689 C-186.2710083 270.72187475 -180.6484326 270.70843859 -175.02569631 270.6813371 C-171.7997157 270.66630855 -168.57432708 270.66130964 -165.34832001 270.67340279 C-133.3517591 270.78130691 -99.83002617 265.56294366 -71 251 C-69.44345703 250.22076172 -69.44345703 250.22076172 -67.85546875 249.42578125 C-42.65339002 235.78428909 -29.0391058 212.16370836 -20.84375 185.51953125 C-5.27183679 131.99511794 -4.57173337 73.95529713 -1.95068359 18.66259766 C-1.89348648 17.48563324 -1.83628937 16.30866882 -1.77735901 15.09603882 C-1.67024635 12.88108888 -1.56714857 10.6659401 -1.46861267 8.45059204 C-1.39774193 6.99246597 -1.39774193 6.99246597 -1.32543945 5.50488281 C-1.28643021 4.6543634 -1.24742096 3.80384399 -1.20722961 2.92755127 C-1 1 -1 1 0 0 Z " fill="#FFFFFF" transform="translate(1386,200)"/>
</svg>
